<?xml version="1.0" standalone="no"?>
<!DOCTYPE svg PUBLIC "-//W3C//DTD SVG 20010904//EN"
 "http://www.w3.org/TR/2001/REC-SVG-20010904/DTD/svg10.dtd">
<svg version="1.0" xmlns="http://www.w3.org/2000/svg"
 width="500.000000pt" height="500.000000pt" viewBox="0 0 500.000000 500.000000"
 preserveAspectRatio="xMidYMid meet">
<metadata>
Created by potrace 1.11, written by Peter Selinger 2001-2013
</metadata>
<g transform="translate(0.000000,500.000000) scale(0.100000,-0.100000)"
fill="#000000" stroke="none">
<path d="M386 4898 c-9 -5 -16 -6 -16 -3 0 10 -74 -32 -91 -51 -40 -46 -47
-78 -53 -235 -6 -173 -18 -621 -20 -746 0 -46 -4 -83 -8 -83 -8 0 -5 -21 5
-37 4 -6 4 -14 0 -16 -8 -5 -7 -147 1 -222 32 -299 153 -552 366 -765 182
-182 412 -305 650 -346 14 -2 36 -7 50 -9 34 -7 200 -14 475 -21 127 -3 284
-7 350 -9 66 -2 139 -4 162 -4 l41 -1 -3 -102 c-8 -262 -18 -684 -19 -785 -2
-212 38 -393 129 -579 203 -413 602 -674 1066 -698 125 -7 217 83 204 197 -11
103 -76 160 -195 171 -133 13 -195 27 -294 68 -178 73 -325 202 -423 372 -44
74 -90 187 -98 241 -3 17 -9 55 -14 85 -5 30 -7 132 -5 225 5 279 20 765 23
788 1 4 85 5 189 2 103 -3 282 -7 397 -10 345 -9 402 -14 536 -49 105 -28 258
-122 354 -220 109 -109 179 -225 223 -367 38 -122 41 -202 29 -654 -23 -794
-24 -765 37 -824 74 -72 179 -72 256 0 54 51 55 60 65 424 3 127 8 311 11 410
13 440 8 558 -30 700 -9 33 -18 67 -21 75 -24 95 -124 279 -212 389 -194 242
-442 392 -757 456 -76 16 -502 33 -948 39 -97 1 -118 4 -119 16 -2 24 -1 59 7
355 5 154 8 379 8 500 -1 244 -13 325 -76 488 -86 226 -248 436 -443 577 -131
95 -369 195 -509 215 -20 3 -52 7 -71 10 -72 10 -151 7 -185 -7 -121 -51 -153
-202 -62 -297 35 -37 70 -51 142 -57 128 -10 201 -27 312 -74 132 -56 244
-142 339 -261 83 -102 159 -271 174 -384 4 -27 9 -53 12 -57 4 -8 3 -289 -2
-403 -2 -38 -6 -189 -10 -335 -3 -145 -8 -266 -10 -268 -4 -4 -101 -3 -295 3
-69 2 -228 7 -355 10 -271 7 -324 10 -387 24 -253 57 -469 218 -592 442 -74
134 -107 275 -106 444 1 112 2 172 16 655 12 445 12 459 -14 505 -13 22 -37
50 -55 62 -40 27 -108 44 -131 31z"/>
<path d="M1137 3948 c-77 -74 -107 -110 -107 -126 0 -16 24 -49 68 -95 37 -39
73 -77 80 -85 28 -31 13 -60 -73 -144 -57 -56 -85 -91 -85 -106 0 -21 49 -80
166 -199 24 -25 51 -43 64 -43 19 0 55 30 167 138 42 40 66 30 157 -63 54 -55
91 -85 105 -85 36 0 241 195 241 229 0 19 -38 70 -95 126 -38 38 -65 78 -65
96 0 11 38 56 85 101 66 63 85 88 85 109 0 36 -193 239 -228 239 -21 0 -48
-21 -155 -122 -22 -21 -50 -38 -62 -38 -14 0 -51 30 -106 85 -62 63 -90 85
-109 85 -19 0 -54 -27 -133 -102z"/>
<path d="M3216 1838 c-81 -48 -119 -129 -96 -208 40 -138 204 -184 303 -85
114 114 44 298 -118 312 -39 3 -58 -1 -89 -19z"/>
<path d="M3654 1832 c-101 -51 -138 -158 -88 -252 90 -168 344 -105 344 85 0
67 -50 144 -110 167 -40 16 -115 16 -146 0z"/>
<path d="M3215 1411 c-136 -63 -153 -234 -31 -319 32 -22 50 -27 101 -27 51 0
68 5 101 27 52 36 76 80 80 141 3 57 -9 90 -45 130 -56 62 -136 81 -206 48z"/>
<path d="M3643 1400 c-92 -42 -135 -145 -98 -233 57 -136 242 -157 322 -36 38
58 41 117 10 182 -44 88 -147 127 -234 87z"/>
</g>
</svg>
